<svg width="491" height="67" viewBox="0 0 491 67" xmlns="http://www.w3.org/2000/svg">
<line x1="7.5" y1="1" x2="7.5" y2="67" stroke="#B0DAAC" stroke-width="15"/>
<path d="M37.77 30.505H56.91V36.39H37.77V30.505ZM38.32 47.005H60.045V53H31.17V14.5H59.275V20.495H38.32V47.005ZM104.426 23.3C106.772 23.3 108.844 23.7583 110.641 24.675C112.474 25.5917 113.904 27.0033 114.931 28.91C115.957 30.78 116.471 33.2 116.471 36.17V53H109.596V37.05C109.596 34.4467 109.027 32.5033 107.891 31.22C106.754 29.9367 105.122 29.295 102.996 29.295C101.492 29.295 100.154 29.625 98.9807 30.285C97.844 30.945 96.9457 31.9167 96.2857 33.2C95.6624 34.4833 95.3507 36.115 95.3507 38.095V53H88.4757V37.05C88.4757 34.4467 87.9074 32.5033 86.7707 31.22C85.634 29.9367 84.0024 29.295 81.8757 29.295C80.3724 29.295 79.034 29.625 77.8607 30.285C76.724 30.945 75.8257 31.9167 75.1657 33.2C74.5424 34.4833 74.2307 36.115 74.2307 38.095V53H67.3557V23.63H73.9007V31.44L72.7457 29.13C73.7357 27.2233 75.1657 25.775 77.0357 24.785C78.9424 23.795 81.1057 23.3 83.5257 23.3C86.2757 23.3 88.659 23.9783 90.6757 25.335C92.729 26.6917 94.0857 28.745 94.7457 31.495L92.0507 30.56C93.004 28.36 94.5807 26.6 96.7807 25.28C98.9807 23.96 101.529 23.3 104.426 23.3ZM162.326 23.3C164.673 23.3 166.744 23.7583 168.541 24.675C170.374 25.5917 171.804 27.0033 172.831 28.91C173.858 30.78 174.371 33.2 174.371 36.17V53H167.496V37.05C167.496 34.4467 166.928 32.5033 165.791 31.22C164.654 29.9367 163.023 29.295 160.896 29.295C159.393 29.295 158.054 29.625 156.881 30.285C155.744 30.945 154.846 31.9167 154.186 33.2C153.563 34.4833 153.251 36.115 153.251 38.095V53H146.376V37.05C146.376 34.4467 145.808 32.5033 144.671 31.22C143.534 29.9367 141.903 29.295 139.776 29.295C138.273 29.295 136.934 29.625 135.761 30.285C134.624 30.945 133.726 31.9167 133.066 33.2C132.443 34.4833 132.131 36.115 132.131 38.095V53H125.256V23.63H131.801V31.44L130.646 29.13C131.636 27.2233 133.066 25.775 134.936 24.785C136.843 23.795 139.006 23.3 141.426 23.3C144.176 23.3 146.559 23.9783 148.576 25.335C150.629 26.6917 151.986 28.745 152.646 31.495L149.951 30.56C150.904 28.36 152.481 26.6 154.681 25.28C156.881 23.96 159.429 23.3 162.326 23.3ZM201.251 53V47.06L200.866 45.795V35.4C200.866 33.3833 200.261 31.825 199.051 30.725C197.841 29.5883 196.008 29.02 193.551 29.02C191.901 29.02 190.27 29.2767 188.656 29.79C187.08 30.3033 185.741 31.0183 184.641 31.935L181.946 26.93C183.523 25.72 185.393 24.8217 187.556 24.235C189.756 23.6117 192.03 23.3 194.376 23.3C198.63 23.3 201.911 24.3267 204.221 26.38C206.568 28.3967 207.741 31.5317 207.741 35.785V53H201.251ZM192.011 53.385C189.811 53.385 187.886 53.0183 186.236 52.285C184.586 51.515 183.303 50.47 182.386 49.15C181.506 47.7933 181.066 46.2717 181.066 44.585C181.066 42.935 181.451 41.45 182.221 40.13C183.028 38.81 184.33 37.765 186.126 36.995C187.923 36.225 190.306 35.84 193.276 35.84H201.801V40.405H193.771C191.425 40.405 189.848 40.79 189.041 41.56C188.235 42.2933 187.831 43.21 187.831 44.31C187.831 45.5567 188.326 46.5467 189.316 47.28C190.306 48.0133 191.681 48.38 193.441 48.38C195.128 48.38 196.631 47.995 197.951 47.225C199.308 46.455 200.28 45.3183 200.866 43.815L202.021 47.94C201.361 49.6633 200.17 51.0017 198.446 51.955C196.76 52.9083 194.615 53.385 192.011 53.385ZM244.36 53.55C241.353 53.55 238.475 53.1283 235.725 52.285C232.975 51.405 230.793 50.2867 229.18 48.93L231.655 43.375C233.195 44.585 235.102 45.5933 237.375 46.4C239.648 47.2067 241.977 47.61 244.36 47.61C246.377 47.61 248.008 47.39 249.255 46.95C250.502 46.51 251.418 45.9233 252.005 45.19C252.592 44.42 252.885 43.5583 252.885 42.605C252.885 41.4317 252.463 40.4967 251.62 39.8C250.777 39.0667 249.677 38.4983 248.32 38.095C247 37.655 245.515 37.2517 243.865 36.885C242.252 36.5183 240.62 36.0967 238.97 35.62C237.357 35.1067 235.872 34.465 234.515 33.695C233.195 32.8883 232.113 31.825 231.27 30.505C230.427 29.185 230.005 27.4983 230.005 25.445C230.005 23.355 230.555 21.4483 231.655 19.725C232.792 17.965 234.497 16.5717 236.77 15.545C239.08 14.4817 241.995 13.95 245.515 13.95C247.825 13.95 250.117 14.2433 252.39 14.83C254.663 15.4167 256.643 16.26 258.33 17.36L256.075 22.915C254.352 21.8883 252.573 21.1367 250.74 20.66C248.907 20.1467 247.147 19.89 245.46 19.89C243.48 19.89 241.867 20.1283 240.62 20.605C239.41 21.0817 238.512 21.705 237.925 22.475C237.375 23.245 237.1 24.125 237.1 25.115C237.1 26.2883 237.503 27.2417 238.31 27.975C239.153 28.6717 240.235 29.2217 241.555 29.625C242.912 30.0283 244.415 30.4317 246.065 30.835C247.715 31.2017 249.347 31.6233 250.96 32.1C252.61 32.5767 254.095 33.2 255.415 33.97C256.772 34.74 257.853 35.785 258.66 37.105C259.503 38.425 259.925 40.0933 259.925 42.11C259.925 44.1633 259.357 46.07 258.22 47.83C257.12 49.5533 255.415 50.9467 253.105 52.01C250.795 53.0367 247.88 53.55 244.36 53.55ZM279.83 53.385C276.75 53.385 274 52.7433 271.58 51.46C269.196 50.14 267.326 48.3433 265.97 46.07C264.613 43.7967 263.935 41.2117 263.935 38.315C263.935 35.3817 264.613 32.7967 265.97 30.56C267.326 28.2867 269.196 26.5083 271.58 25.225C274 23.9417 276.75 23.3 279.83 23.3C282.69 23.3 285.201 23.8867 287.365 25.06C289.565 26.1967 291.233 27.8833 292.37 30.12L287.09 33.2C286.21 31.8067 285.128 30.78 283.845 30.12C282.598 29.46 281.241 29.13 279.775 29.13C278.088 29.13 276.566 29.4967 275.21 30.23C273.853 30.9633 272.79 32.0267 272.02 33.42C271.25 34.7767 270.865 36.4083 270.865 38.315C270.865 40.2217 271.25 41.8717 272.02 43.265C272.79 44.6217 273.853 45.6667 275.21 46.4C276.566 47.1333 278.088 47.5 279.775 47.5C281.241 47.5 282.598 47.17 283.845 46.51C285.128 45.85 286.21 44.8233 287.09 43.43L292.37 46.51C291.233 48.71 289.565 50.415 287.365 51.625C285.201 52.7983 282.69 53.385 279.83 53.385ZM314.709 23.3C317.056 23.3 319.146 23.7583 320.979 24.675C322.849 25.5917 324.316 27.0033 325.379 28.91C326.443 30.78 326.974 33.2 326.974 36.17V53H320.099V37.05C320.099 34.4467 319.476 32.5033 318.229 31.22C317.019 29.9367 315.314 29.295 313.114 29.295C311.501 29.295 310.071 29.625 308.824 30.285C307.578 30.945 306.606 31.935 305.909 33.255C305.249 34.5383 304.919 36.17 304.919 38.15V53H298.044V12.19H304.919V31.55L303.434 29.13C304.461 27.26 305.946 25.83 307.889 24.84C309.869 23.8133 312.143 23.3 314.709 23.3ZM341.648 53L330.868 23.63H337.358L346.598 49.535H343.518L353.198 23.63H358.973L368.378 49.535H365.353L374.868 23.63H380.973L370.138 53H363.538L354.958 30.065H356.993L348.248 53H341.648ZM402.882 53V47.06L402.497 45.795V35.4C402.497 33.3833 401.892 31.825 400.682 30.725C399.472 29.5883 397.639 29.02 395.182 29.02C393.532 29.02 391.901 29.2767 390.287 29.79C388.711 30.3033 387.372 31.0183 386.272 31.935L383.577 26.93C385.154 25.72 387.024 24.8217 389.187 24.235C391.387 23.6117 393.661 23.3 396.007 23.3C400.261 23.3 403.542 24.3267 405.852 26.38C408.199 28.3967 409.372 31.5317 409.372 35.785V53H402.882ZM393.642 53.385C391.442 53.385 389.517 53.0183 387.867 52.285C386.217 51.515 384.934 50.47 384.017 49.15C383.137 47.7933 382.697 46.2717 382.697 44.585C382.697 42.935 383.082 41.45 383.852 40.13C384.659 38.81 385.961 37.765 387.757 36.995C389.554 36.225 391.937 35.84 394.907 35.84H403.432V40.405H395.402C393.056 40.405 391.479 40.79 390.672 41.56C389.866 42.2933 389.462 43.21 389.462 44.31C389.462 45.5567 389.957 46.5467 390.947 47.28C391.937 48.0133 393.312 48.38 395.072 48.38C396.759 48.38 398.262 47.995 399.582 47.225C400.939 46.455 401.911 45.3183 402.497 43.815L403.652 47.94C402.992 49.6633 401.801 51.0017 400.077 51.955C398.391 52.9083 396.246 53.385 393.642 53.385ZM418.196 53V23.63H424.741V31.715L423.971 29.35C424.851 27.37 426.226 25.8667 428.096 24.84C430.002 23.8133 432.367 23.3 435.191 23.3V29.845C434.897 29.7717 434.622 29.735 434.366 29.735C434.109 29.6983 433.852 29.68 433.596 29.68C430.992 29.68 428.921 30.45 427.381 31.99C425.841 33.4933 425.071 35.7483 425.071 38.755V53H418.196ZM453.152 53.385C449.925 53.385 447.432 52.56 445.672 50.91C443.912 49.2233 443.032 46.7483 443.032 43.485V17.14H449.907V43.32C449.907 44.7133 450.255 45.795 450.952 46.565C451.685 47.335 452.694 47.72 453.977 47.72C455.517 47.72 456.8 47.3167 457.827 46.51L459.752 51.405C458.945 52.065 457.955 52.56 456.782 52.89C455.609 53.22 454.399 53.385 453.152 53.385ZM438.192 29.35V23.85H457.772V29.35H438.192ZM462.987 53V48.655L481.082 26.765L482.347 29.13H463.317V23.63H487.847V27.975L469.752 49.865L468.377 47.5H488.342V53H462.987Z" fill="white"/>
</svg>
